#!OML:ASF F:\VICON\USERDATA\INSTALL\rory3\rory3.ASF
:FULLY-SPECIFIED
:DEGREES
102
root 0.3729012562259711 17.743529678049715 44.23219093824029 -3.954553412074283 -3.3456642267927705 -0.6917485716642189
lfemur -15.304419311799208 -3.463986095474294 -22.598789081877513
ltibia 27.290451123807028
lfoot -5.182518758436208 -4.4777295814277585
ltoes -13.730963525380487
rfemur -11.660950580653312 2.283944683345474 21.952901912270917
rtibia 68.08647163190705
rfoot 0.9211092107965051 -5.8149810130870225
rtoes 8.875513396871932
lowerback 9.924330781324462 1.680989028654348 -0.21963259100849575
upperback 0.29396910335271725 2.16634557778245 0.27693319695764607
thorax -5.602759561889608 1.056380858196462 -0.20128447847417874
lowerneck -15.085132566974552 -2.849743384663149 -1.9788488868155572
upperneck 22.13570399384042 -3.4935382551414236 -0.06866381867797633
head 9.485825106076113 -1.7390092560829329 -0.3326379701592812
lclavicle -1.3829870868383545e-15 -1.839800075526482e-15
lhumerus -31.534414316917843 3.4070776167254992 80.60563830008346
lradius 32.7971474132226
lwrist 6.442654207507816
lhand -27.078616331060363 23.397839898015704
lfingers 7.125019999999999
lthumb -0.12208789456010916 53.641913459147915
rclavicle -1.3855636660987546e-15 -1.84196453609548e-15
rhumerus -31.22575387882179 -23.872960978380256 -75.49875088091734
rradius 22.73212656062462
rwrist 3.597530449806023
rhand -17.928821963850396 22.399661825794944
rfingers 7.125019999999999
rthumb 8.144929848495828 -7.818927396302839
103
root 0.38724971561843813 17.763938050328864 44.96770623915815 -4.317929702069156 -3.7484072498074203 -0.8923666141101281
lfemur -12.729248643764157 -3.290840792018637 -22.69164859085465
ltibia 26.960696069163497
lfoot -6.367859677559986 -4.419189400301761
ltoes -14.26030956038165
rfemur -15.919638611564112 1.9850262501124365 21.973333047965998
rtibia 70.8382715441114
rfoot -0.96288429625627 -5.985257882627522
rtoes 7.6412514692540086
lowerback 10.220856091014868 1.484935178227347 -0.3069147208283447
upperback 0.4041758826296843 1.8914175962139628 0.41098524257348856
thorax -5.648596063896109 0.9354979077117289 0.15551518766727412
lowerneck -15.080517463467796 -2.7228643871305245 -2.0525203383632387
upperneck 22.283750421053114 -3.197746729208184 -0.23662248628240895
head 9.562036535092657 -1.643035996129655 -0.3621052706860439
lclavicle -1.3831059281238766e-15 -1.8404060595419647e-15
lhumerus -31.3905722276165 3.074113921960981 80.47606167137167
lradius 33.145112294640946
lwrist 6.721568824566679
lhand -27.077627201481352 23.515051166895717
lfingers 7.125019999999999
lthumb -0.05871473336564692 53.80051657550352
rclavicle -1.3854539053639175e-15 -1.841862070010263e-15
rhumerus -31.68662707584958 -24.041515992090343 -75.26319558721792
rradius 22.325152138870067
rwrist 3.658067651810113
rhand -17.825453740165035 22.333536948455002
rfingers 7.125019999999999
rthumb 8.258040272547097 -7.92723755560761
104
root 0.42486546320662344 17.78586124152657 45.13661435872225 -4.910374840067304 -2.726703681256474 1.104539200317554
lfemur -9.524649260649573 -3.4919544977719483 -25.22028436738207
ltibia 25.59332485271642
lfoot -7.43849064520313 -3.4324396139911677
ltoes -14.044635019216
rfemur -19.956486705690246 0.38192370987058766 19.868241565420238
rtibia 71.49226109510599
rfoot -2.4698016738459243 -5.7562315619701145
rtoes 7.338284219224601
lowerback 10.304497250536226 0.9420104831476863 -1.8359428536580005
upperback 0.5418936610627919 1.0341944605426538 0.35723661855259903
thorax -5.560957729179104 0.5265760535314901 0.7676880120111138
lowerneck -15.12367650968532 -2.61980331745569 -2.13465302431956
upperneck 22.464126573315927 -2.9543782923605093 -0.3647130637431226
head 9.656774511041762 -1.5679625757147124 -0.37742248895572994
lclavicle -1.383669591711922e-15 -1.8408489957178225e-15
lhumerus -31.25194590745413 2.7003358424631623 80.38495495265505
lradius 33.35236359110464
lwrist 7.126669360966796
lhand -27.16764747149842 23.477313543434608
lfingers 7.125019999999999
lthumb -0.10237033344754698 53.79181107642999
rclavicle -1.385038966203676e-15 -1.841476496347949e-15
rhumerus -31.85264057910028 -23.578015182421773 -75.35313109218521
rradius 22.137981449823826
rwrist 3.488451903714984
rhand -17.792384193359293 22.36387889918163
rfingers 7.125019999999999
rthumb 8.321605221772234 -7.90890764664585
105
root 0.42464478458442967 17.7467194946442 45.42764484456931 -4.82223978610457 -2.123917089608947 0.019208830957944567
lfemur -7.4763311662217 -3.6881499716920763 -24.433311660275024
ltibia 25.32858265337692
lfoot -8.552968663897 -3.2177988671771156
ltoes -13.826124296835028
rfemur -22.531663214869795 0.19046093340070502 21.231608844690133
rtibia 68.59968912563146
rfoot -3.8916419429983042 -5.8690807787204315
rtoes 7.430765424125646
lowerback 10.571687976843892 0.5146443004239096 -1.5494831494167736
upperback 0.47698687798171047 0.4995873025315383 0.6505111186920464
thorax -5.708973454375691 0.27027189041009486 1.2538627024359719
lowerneck -15.137719542203996 -2.6024664639052757 -2.313739459424461
upperneck 22.66308931559587 -2.872345045584605 -0.32956275331575335
head 9.766932487079373 -1.5455134481295834 -0.34921583581252313
lclavicle -1.3877170852231375e-15 -1.8439173969918985e-15
lhumerus -31.273415825522743 2.3630703156972483 80.28954121140426
lradius 33.49896076145495
lwrist 7.653712787265805
lhand -27.346488750906648 23.28190593901685
lfingers 7.125019999999999
lthumb -0.2340814594886288 53.645803705501315
rclavicle -1.3854628698925675e-15 -1.841870225007471e-15
rhumerus -31.991403364806352 -23.244206279856883 -75.2205657495607
rradius 21.94300372676153
rwrist 3.4548287616656443
rhand -17.788702500704346 22.405667665907195
rfingers 7.125019999999999
rthumb 8.369864416459812 -7.821654594122432
106
root 0.4145621547689031 17.704081818044493 45.88201995986253 -4.512128763179255 -1.5664508754296023 0.39860651133899827
lfemur -5.329827821310268 -3.660482045792901 -24.897695248381602
ltibia 24.601115367370497
lfoot -8.76765083542686 -2.823117493288467
ltoes -13.246191804757288
rfemur -25.144872440651646 0.49401709272932415 21.36379240279539
rtibia 63.45409828517735
rfoot -4.865625534398765 -6.6444805858220075
rtoes 7.35928651319716
lowerback 10.828908815585637 0.16243139454289113 -1.981293458030394
upperback 0.531684144956017 -0.044674875456380825 0.7837271650821407
thorax -5.726226786988257 0.007407270938568189 1.7723515166864483
lowerneck -15.211239399052197 -2.6093171699739783 -2.456931710916685
upperneck 22.903962855836472 -2.8482813463141636 -0.25227679802780095
head 9.889632077307086 -1.5414623865350245 -0.31111713597969315
lclavicle -1.3883580046938903e-15 -1.844430074548977e-15
lhumerus -31.259575308435085 2.321653764350727 80.23934348340607
lradius 33.45409140677525
lwrist 8.24487863321032
lhand -27.600110747091687 22.996537855642508
lfingers 7.125019999999999
lthumb -0.46299188703399313 53.40041563520994
rclavicle -1.3853500382628464e-15 -1.8417651249696727e-15
rhumerus -32.28239634320934 -23.241528384403782 -75.26523274161335
rradius 22.006357196404156
rwrist 3.367126469001678
rhand -17.783736979470042 22.42335635080187
rfingers 7.125019999999999
rthumb 8.41565959579248 -7.717096877869283
107
root 0.39747507443031543 17.696860851531344 46.287408216063206 -4.028136911167719 -0.9375914087995774 0.8003359517511099
lfemur -2.9916276592743367 -3.447687596226069 -25.447088832514154
ltibia 23.176507950346846
lfoot -8.642715202182165 -2.5548995706639728
ltoes -13.57477857385187
rfemur -26.85479166819856 1.1930483176194522 20.937288687888863
rtibia 55.84370014698261
rfoot -5.052538910328831 -8.108663272156956
rtoes 7.023440435187656
lowerback 10.898923305206234 -0.19376791274753452 -2.572428117823621
upperback 0.581618628960694 -0.5588989058259939 0.9040192475826707
thorax -5.5997476605255585 -0.23836741386813204 2.345773411592009
lowerneck -15.28164953035748 -2.6426707812338477 -2.610090251784826
upperneck 23.124385707942498 -2.8866586913441714 -0.06827055600215515
head 10.003198547456918 -1.5540206973418977 -0.23933915626810776
lclavicle -1.3852795161864819e-15 -1.8421822333980036e-15
lhumerus -31.19429434346887 2.506903796019759 80.26093795706049
lradius 33.26444125845762
lwrist 8.592616130200573
lhand -27.830074731691624 22.78221948557816
lfingers 7.125019999999999
lthumb -0.6741163802455477 53.22056247351148
rclavicle -1.3854677979027303e-15 -1.841874037951812e-15
rhumerus -32.62571031438583 -23.514871725375496 -75.04858476366776
rradius 21.981559618734135
rwrist 3.39793143216747
rhand -17.76313990672024 22.462611303853734
rfingers 7.125019999999999
rthumb 8.466701991655734 -7.577215864822415
108
root 0.3627606958724916 17.687391784096807 46.994413236011745 -3.2703826820473414 -0.4599448196157092 0.9881458157102578
lfemur -0.23453856149908958 -3.2001318862268677 -25.715665569703305
ltibia 20.784190217257933
lfoot -9.210434070615623 -2.6872317827351013
ltoes -14.901219557459461
rfemur -27.190806223281285 3.0320379375684725 20.226697568956773
rtibia 45.52959989580866
rfoot -3.821406340952632 -9.618852914731919
rtoes 6.303564299359906
lowerback 10.66569937343754 -0.5060010765918475 -2.892306276993702
upperback 0.5719270507442692 -0.9890290203412064 1.0372288422525362
thorax -5.4018321480090785 -0.4411683619095273 2.8205437068603
lowerneck -15.306421559598265 -2.657318444539958 -2.6886265797899025
upperneck 23.29474034476639 -2.90709558196546 0.08732598492713066
head 10.093641745773423 -1.5591340340814868 -0.1729757226440335
lclavicle -1.3854724369611277e-15 -1.842396808668083e-15
lhumerus -31.37029913034954 2.4939934598743294 80.30048534709111
lradius 33.17837383772098
lwrist 8.728990405411595
lhand -28.024127641840384 22.65057214165701
lfingers 7.125019999999999
lthumb -0.8674418378803868 53.090658307281664
rclavicle -1.3859280733658362e-15 -1.8423014687948415e-15
rhumerus -32.8632065255924 -23.666941120606715 -74.60551411245923
rradius 21.785070249416513
rwrist 3.742105446236361
rhand -17.72809539954993 22.56460872128011
rfingers 7.125019999999999
rthumb 8.526624540833463 -7.3821428178010295
